# Blender 4.1.1
# www.blender.org
o Text.004
v 0.015201 0.100000 -0.167033
v 0.013201 0.100000 -0.167033
v -0.142799 0.100000 0.026967
v 0.013201 -0.100000 -0.167033
v -0.142799 -0.100000 0.026967
v 0.015201 0.100000 0.026967
v 0.015201 -0.100000 -0.167033
v 0.015201 -0.100000 0.026967
v 0.113201 0.100000 0.026967
v 0.113201 -0.100000 -0.352033
v 0.113201 0.100000 -0.352033
v 0.071201 -0.100000 -0.352033
v 0.071201 0.100000 -0.352033
v -0.273799 -0.100000 0.069967
v -0.273799 0.100000 0.069967
v -0.273799 -0.100000 0.114967
v -0.273799 0.100000 0.114967
v 0.015201 -0.100000 0.114967
v 0.015201 0.100000 0.114967
v 0.015201 0.100000 0.338967
v 0.113201 0.100000 0.338967
v 0.015201 -0.100000 0.338967
v 0.113201 -0.100000 0.338967
v 0.113201 0.100000 0.114967
v 0.113201 -0.100000 0.114967
v 0.186201 0.100000 0.114967
v 0.186201 -0.100000 0.114967
v 0.186201 0.100000 0.026967
v 0.113201 -0.100000 0.026967
v 0.186201 -0.100000 0.026967
v 0.113201 -0.100000 0.338967
v 0.015201 -0.100000 0.338967
v 0.113201 -0.100000 0.114967
v 0.015201 -0.100000 0.114967
v -0.273799 -0.100000 0.114967
v 0.071201 -0.100000 -0.352033
v -0.142799 -0.100000 0.026967
v 0.013201 -0.100000 -0.167033
v 0.015201 -0.100000 -0.167033
v 0.015201 -0.100000 0.026967
v 0.113201 -0.100000 -0.352033
v 0.113201 -0.100000 0.026967
v -0.273799 -0.100000 0.069967
v 0.186201 -0.100000 0.114967
v 0.186201 -0.100000 0.026967
v 0.113201 0.100000 0.338967
v 0.015201 0.100000 0.338967
v 0.113201 0.100000 0.114967
v 0.015201 0.100000 0.114967
v -0.273799 0.100000 0.114967
v 0.071201 0.100000 -0.352033
v -0.142799 0.100000 0.026967
v 0.013201 0.100000 -0.167033
v 0.015201 0.100000 -0.167033
v 0.015201 0.100000 0.026967
v 0.113201 0.100000 -0.352033
v 0.113201 0.100000 0.026967
v -0.273799 0.100000 0.069967
v 0.186201 0.100000 0.114967
v 0.186201 0.100000 0.026967
vn -0.7071 -0.0000 0.7071
vn 0.4321 -0.0000 0.9018
vn 0.9018 -0.0000 -0.4321
vn -0.7071 -0.0000 -0.7071
vn 0.7071 -0.0000 -0.7071
vn -0.4284 -0.0000 -0.9036
vn -0.9419 -0.0000 -0.3360
vn 0.7071 -0.0000 0.7071
vn -0.0000 -1.0000 -0.0000
vn -0.0000 1.0000 -0.0000
vt 0.250000 1.000000
vt 0.500000 1.000000
vt 0.500000 0.000000
vt 0.250000 0.000000
vt 0.750000 1.000000
vt 0.750000 0.000000
vt 1.000000 1.000000
vt 1.000000 0.000000
vt 0.000000 1.000000
vt 0.000000 0.000000
vt 0.818182 1.000000
vt 0.909091 1.000000
vt 0.909091 0.000000
vt 0.818182 0.000000
vt 0.727273 1.000000
vt 0.727273 0.000000
vt 0.636364 1.000000
vt 0.636364 0.000000
vt 0.545455 1.000000
vt 0.545455 0.000000
vt 0.454545 1.000000
vt 0.454545 0.000000
vt 0.363636 1.000000
vt 0.363636 0.000000
vt 0.272727 1.000000
vt 0.272727 0.000000
vt 0.181818 1.000000
vt 0.181818 0.000000
vt 0.090909 1.000000
vt 0.090909 0.000000
vt 0.285714 0.000000
vt 0.142857 0.000000
vt 0.214286 0.000000
vt 0.357143 0.000000
vt 0.071429 0.000000
vt 0.428571 0.000000
vt 0.571429 0.000000
vt 0.642857 0.000000
vt 0.785714 0.000000
vt 0.928571 0.000000
vt 0.857143 0.000000
vt 0.714286 0.000000
s 1
f 1/1/1 2/2/2 4/3/2 7/4/1
f 2/2/2 3/5/3 5/6/3 4/3/2
f 3/5/3 6/7/4 8/8/4 5/6/3
f 6/9/4 1/1/1 7/4/1 8/10/4
f 11/11/5 9/12/5 29/13/5 10/14/5
f 13/15/6 11/11/5 10/14/5 12/16/6
f 15/17/7 13/15/6 12/16/6 14/18/7
f 17/19/1 15/17/7 14/18/7 16/20/1
f 19/21/1 17/19/1 16/20/1 18/22/1
f 20/23/1 19/21/1 18/22/1 22/24/1
f 21/25/8 20/23/1 22/24/1 23/26/8
f 24/27/8 21/25/8 23/26/8 25/28/8
f 26/29/8 24/27/8 25/28/8 27/30/8
f 28/9/5 26/29/8 27/30/8 30/10/5
f 9/12/5 28/7/5 30/8/5 29/13/5
s 0
f 32/31/9 33/32/9 31/33/9
f 32/31/9 34/34/9 33/32/9
f 33/32/10 34/34/10 44/35/10
f 34/34/10 35/36/10 44/35/10
f 35/36/9 43/3/9 44/35/9
f 43/3/9 36/37/9 41/38/9
f 43/3/9 37/8/9 40/39/9
f 43/3/9 41/38/9 38/40/9
f 43/3/9 38/40/9 37/8/9
f 38/40/9 41/38/9 39/41/9
f 40/39/9 39/41/9 42/42/9
f 39/41/9 41/38/9 42/42/9
f 43/3/9 40/39/9 42/42/9
f 43/3/9 42/42/9 45/10/9
f 43/3/9 45/10/9 44/35/9
f 47/31/10 46/33/10 48/32/10
f 47/31/10 48/32/10 49/34/10
f 48/32/10 59/35/10 49/34/10
f 49/34/10 59/35/10 50/36/10
f 50/36/10 59/35/10 58/3/10
f 58/3/10 56/38/10 51/37/10
f 58/3/10 55/39/10 52/8/10
f 58/3/10 53/40/10 56/38/10
f 58/3/10 52/8/10 53/40/10
f 53/40/10 54/41/10 56/38/10
f 55/39/10 57/42/10 54/41/10
f 54/41/10 57/42/10 56/38/10
f 58/3/10 57/42/10 55/39/10
f 58/3/10 60/10/10 57/42/10
f 58/3/10 59/35/10 60/10/10
