# Blender 4.1.1
# www.blender.org
o Text.005
v -0.199231 0.100000 0.200653
v -0.186961 0.100000 0.208569
v -0.174653 0.100000 0.215815
v -0.162310 0.100000 0.222387
v -0.149935 0.100000 0.228283
v -0.137533 0.100000 0.233497
v -0.125107 0.100000 0.238028
v -0.112659 0.100000 0.241871
v -0.100194 0.100000 0.245023
v -0.087716 0.100000 0.247481
v -0.075227 0.100000 0.249241
v -0.062731 0.100000 0.250299
v -0.199231 0.100000 0.301653
v -0.050231 0.100000 0.250653
v -0.031281 0.100000 0.249512
v -0.013051 0.100000 0.246195
v 0.020546 0.100000 0.233653
v 0.004284 0.100000 0.240856
v 0.144078 0.100000 0.261249
v 0.159621 0.100000 0.238172
v 0.035558 0.100000 0.224742
v 0.049144 0.100000 0.214278
v 0.061124 0.100000 0.202419
v 0.172066 0.100000 0.212872
v 0.071324 0.100000 0.189320
v 0.079565 0.100000 0.175137
v 0.085671 0.100000 0.160028
v 0.181209 0.100000 0.185551
v 0.186845 0.100000 0.156411
v 0.089465 0.100000 0.144148
v 0.090769 0.100000 0.127653
v 0.083482 0.100000 0.086056
v 0.088931 0.100000 0.106328
v 0.188769 0.100000 0.125653
v 0.186830 0.100000 0.094802
v 0.181093 0.100000 0.065426
v 0.074519 0.100000 0.067137
v 0.062139 0.100000 0.049875
v 0.046440 0.100000 0.034571
v -0.019602 0.100000 0.003431
v 0.005472 0.100000 0.011047
v 0.027519 0.100000 0.021528
v 0.171675 0.100000 0.037794
v 0.158695 0.100000 0.012172
v 0.142270 0.100000 -0.011173
v -0.047606 0.100000 -0.001019
v -0.078444 0.100000 -0.002000
v 0.122519 0.100000 -0.031972
v -0.022001 0.100000 -0.088433
v 0.012612 0.100000 -0.084370
v -0.112018 0.100000 0.000790
v 0.099560 0.100000 -0.049959
v 0.073510 0.100000 -0.064865
v 0.044488 0.100000 -0.076425
v 0.154769 0.100000 -0.259347
v 0.154769 0.100000 -0.347347
v -0.148231 0.100000 -0.347347
v -0.148231 0.100000 0.007653
v -0.059231 0.100000 -0.088347
v -0.059231 0.100000 -0.259347
v -0.059231 0.100000 -0.088347
v -0.022001 -0.100000 -0.088433
v 0.012612 -0.100000 -0.084370
v -0.022001 0.100000 -0.088433
v 0.012612 0.100000 -0.084370
v 0.044488 0.100000 -0.076425
v 0.073510 0.100000 -0.064865
v 0.044488 -0.100000 -0.076425
v 0.073510 -0.100000 -0.064865
v 0.099560 -0.100000 -0.049959
v 0.122519 -0.100000 -0.031972
v 0.099560 0.100000 -0.049959
v 0.122519 0.100000 -0.031972
v 0.142270 0.100000 -0.011173
v 0.158695 0.100000 0.012172
v 0.142270 -0.100000 -0.011173
v 0.158695 -0.100000 0.012172
v 0.171675 -0.100000 0.037794
v 0.181093 -0.100000 0.065426
v 0.171675 0.100000 0.037794
v 0.181093 0.100000 0.065426
v 0.186830 0.100000 0.094802
v 0.188769 0.100000 0.125653
v 0.186830 -0.100000 0.094802
v 0.188769 -0.100000 0.125653
v 0.186845 -0.100000 0.156411
v 0.181209 -0.100000 0.185551
v 0.186845 0.100000 0.156411
v 0.181209 0.100000 0.185551
v 0.172066 0.100000 0.212872
v 0.159621 0.100000 0.238172
v 0.172066 -0.100000 0.212872
v 0.159621 -0.100000 0.238172
v 0.144078 -0.100000 0.261249
v 0.125644 -0.100000 0.281903
v 0.144078 0.100000 0.261249
v 0.125644 0.100000 0.281903
v 0.104522 0.100000 0.299932
v 0.080917 0.100000 0.315134
v 0.104522 -0.100000 0.299932
v 0.080917 -0.100000 0.315134
v 0.055034 -0.100000 0.327309
v 0.027079 -0.100000 0.336255
v 0.055034 0.100000 0.327309
v 0.027079 0.100000 0.336255
v -0.002745 0.100000 0.341770
v -0.034231 0.100000 0.343653
v -0.002745 -0.100000 0.341770
v -0.034231 -0.100000 0.343653
v -0.048745 -0.100000 0.343400
v -0.062843 -0.100000 0.342625
v -0.048745 0.100000 0.343400
v -0.062843 0.100000 0.342625
v -0.076607 0.100000 0.341309
v -0.090120 0.100000 0.339431
v -0.076607 -0.100000 0.341309
v -0.090120 -0.100000 0.339431
v -0.103467 -0.100000 0.336969
v -0.116731 -0.100000 0.333903
v -0.103467 0.100000 0.336969
v -0.116731 0.100000 0.333903
v -0.129995 0.100000 0.330212
v -0.143342 0.100000 0.325875
v -0.129995 -0.100000 0.330212
v -0.143342 -0.100000 0.325875
v -0.156856 -0.100000 0.320872
v -0.170620 -0.100000 0.315181
v -0.156856 0.100000 0.320872
v -0.170620 0.100000 0.315181
v -0.184717 0.100000 0.308782
v -0.199231 0.100000 0.301653
v -0.184717 -0.100000 0.308782
v -0.199231 -0.100000 0.301653
v -0.199231 -0.100000 0.200653
v -0.186961 -0.100000 0.208569
v -0.199231 0.100000 0.200653
v -0.186961 0.100000 0.208569
v -0.174653 0.100000 0.215815
v -0.162310 0.100000 0.222387
v -0.174653 -0.100000 0.215815
v -0.162310 -0.100000 0.222387
v -0.149935 -0.100000 0.228283
v -0.137533 -0.100000 0.233497
v -0.149935 0.100000 0.228283
v -0.137533 0.100000 0.233497
v -0.125107 0.100000 0.238028
v -0.112659 0.100000 0.241871
v -0.125107 -0.100000 0.238028
v -0.112659 -0.100000 0.241871
v -0.100194 -0.100000 0.245023
v -0.087716 -0.100000 0.247481
v -0.100194 0.100000 0.245023
v -0.087716 0.100000 0.247481
v -0.075227 0.100000 0.249241
v -0.062731 0.100000 0.250299
v -0.075227 -0.100000 0.249241
v -0.062731 -0.100000 0.250299
v -0.050231 -0.100000 0.250653
v -0.031281 -0.100000 0.249512
v -0.050231 0.100000 0.250653
v -0.031281 0.100000 0.249512
v -0.013051 0.100000 0.246195
v 0.004284 0.100000 0.240856
v -0.013051 -0.100000 0.246195
v 0.004284 -0.100000 0.240856
v 0.020546 -0.100000 0.233653
v 0.035558 -0.100000 0.224742
v 0.020546 0.100000 0.233653
v 0.035558 0.100000 0.224742
v 0.049144 0.100000 0.214278
v 0.061124 0.100000 0.202419
v 0.049144 -0.100000 0.214278
v 0.061124 -0.100000 0.202419
v 0.071324 -0.100000 0.189320
v 0.079565 -0.100000 0.175137
v 0.071324 0.100000 0.189320
v 0.079565 0.100000 0.175137
v 0.085671 0.100000 0.160028
v 0.089465 0.100000 0.144148
v 0.085671 -0.100000 0.160028
v 0.089465 -0.100000 0.144148
v 0.090769 -0.100000 0.127653
v 0.088931 -0.100000 0.106328
v 0.090769 0.100000 0.127653
v 0.088931 0.100000 0.106328
v 0.083482 0.100000 0.086056
v 0.074519 0.100000 0.067137
v 0.083482 -0.100000 0.086056
v 0.074519 -0.100000 0.067137
v 0.062139 -0.100000 0.049875
v 0.046440 -0.100000 0.034571
v 0.062139 0.100000 0.049875
v 0.046440 0.100000 0.034571
v 0.027519 0.100000 0.021528
v 0.005472 0.100000 0.011047
v 0.027519 -0.100000 0.021528
v 0.005472 -0.100000 0.011047
v -0.019602 -0.100000 0.003431
v -0.047606 -0.100000 -0.001019
v -0.019602 0.100000 0.003431
v -0.047606 0.100000 -0.001019
v -0.078444 0.100000 -0.002000
v -0.112018 0.100000 0.000790
v -0.078444 -0.100000 -0.002000
v -0.112018 -0.100000 0.000790
v -0.148231 -0.100000 0.007653
v -0.148231 -0.100000 -0.347347
v -0.148231 0.100000 0.007653
v -0.148231 0.100000 -0.347347
v 0.154769 0.100000 -0.347347
v 0.154769 0.100000 -0.259347
v 0.154769 -0.100000 -0.347347
v 0.154769 -0.100000 -0.259347
v -0.059231 0.100000 -0.259347
v -0.059231 -0.100000 -0.088347
v -0.059231 -0.100000 -0.259347
v -0.022001 -0.100000 -0.088433
v -0.048745 -0.100000 0.343400
v -0.076607 -0.100000 0.341309
v -0.062843 -0.100000 0.342625
v -0.034231 -0.100000 0.343653
v -0.002745 -0.100000 0.341770
v -0.090120 -0.100000 0.339431
v -0.103467 -0.100000 0.336969
v -0.116731 -0.100000 0.333903
v 0.027079 -0.100000 0.336255
v -0.129995 -0.100000 0.330212
v -0.143342 -0.100000 0.325875
v -0.156856 -0.100000 0.320872
v -0.170620 -0.100000 0.315181
v 0.055034 -0.100000 0.327309
v 0.080917 -0.100000 0.315134
v -0.184717 -0.100000 0.308782
v 0.104522 -0.100000 0.299932
v 0.125644 -0.100000 0.281903
v -0.199231 -0.100000 0.200653
v -0.186961 -0.100000 0.208569
v -0.174653 -0.100000 0.215815
v -0.162310 -0.100000 0.222387
v -0.149935 -0.100000 0.228283
v -0.137533 -0.100000 0.233497
v -0.125107 -0.100000 0.238028
v -0.112659 -0.100000 0.241871
v -0.100194 -0.100000 0.245023
v -0.087716 -0.100000 0.247481
v -0.075227 -0.100000 0.249241
v -0.062731 -0.100000 0.250299
v -0.199231 -0.100000 0.301653
v -0.050231 -0.100000 0.250653
v -0.031281 -0.100000 0.249512
v -0.013051 -0.100000 0.246195
v 0.020546 -0.100000 0.233653
v 0.004284 -0.100000 0.240856
v 0.144078 -0.100000 0.261249
v 0.159621 -0.100000 0.238172
v 0.035558 -0.100000 0.224742
v 0.049144 -0.100000 0.214278
v 0.061124 -0.100000 0.202419
v 0.172066 -0.100000 0.212872
v 0.071324 -0.100000 0.189320
v 0.079565 -0.100000 0.175137
v 0.085671 -0.100000 0.160028
v 0.181209 -0.100000 0.185551
v 0.186845 -0.100000 0.156411
v 0.089465 -0.100000 0.144148
v 0.090769 -0.100000 0.127653
v 0.188769 -0.100000 0.125653
v 0.088931 -0.100000 0.106328
v 0.083482 -0.100000 0.086056
v 0.186830 -0.100000 0.094802
v 0.074519 -0.100000 0.067137
v 0.181093 -0.100000 0.065426
v 0.062139 -0.100000 0.049875
v 0.046440 -0.100000 0.034571
v -0.019602 -0.100000 0.003431
v 0.005472 -0.100000 0.011047
v 0.027519 -0.100000 0.021528
v 0.171675 -0.100000 0.037794
v 0.158695 -0.100000 0.012172
v 0.142270 -0.100000 -0.011173
v -0.047606 -0.100000 -0.001019
v -0.078444 -0.100000 -0.002000
v 0.122519 -0.100000 -0.031972
v -0.112018 -0.100000 0.000790
v 0.099560 -0.100000 -0.049959
v 0.073510 -0.100000 -0.064865
v 0.044488 -0.100000 -0.076425
v 0.012612 -0.100000 -0.084370
v 0.154769 -0.100000 -0.259347
v 0.154769 -0.100000 -0.347347
v -0.148231 -0.100000 -0.347347
v -0.148231 -0.100000 0.007653
v -0.059231 -0.100000 -0.088347
v -0.059231 -0.100000 -0.259347
v -0.048745 0.100000 0.343400
v -0.034231 0.100000 0.343653
v -0.062843 0.100000 0.342625
v -0.076607 0.100000 0.341309
v -0.090120 0.100000 0.339431
v -0.103467 0.100000 0.336969
v -0.002745 0.100000 0.341770
v 0.027079 0.100000 0.336255
v -0.116731 0.100000 0.333903
v -0.129995 0.100000 0.330212
v -0.143342 0.100000 0.325875
v -0.156856 0.100000 0.320872
v -0.170620 0.100000 0.315181
v 0.055034 0.100000 0.327309
v 0.125644 0.100000 0.281903
v 0.080917 0.100000 0.315134
v -0.184717 0.100000 0.308782
v 0.104522 0.100000 0.299932
vn -0.0000 1.0000 -0.0000
vn 0.7063 -0.0000 -0.7079
vn 0.0572 -0.0000 -0.9984
vn 0.1796 -0.0000 -0.9837
vn 0.3066 -0.0000 -0.9518
vn 0.4344 -0.0000 -0.9007
vn 0.5581 -0.0000 -0.8297
vn 0.6727 -0.0000 -0.7399
vn 0.7736 -0.0000 -0.6337
vn 0.8572 -0.0000 -0.5150
vn 0.9216 -0.0000 -0.3882
vn 0.9662 -0.0000 -0.2577
vn 0.9918 -0.0000 -0.1275
vn 1.0000 -0.0000 -0.0001
vn 0.9920 -0.0000 0.1264
vn 0.9672 -0.0000 0.2542
vn 0.9249 -0.0000 0.3802
vn 0.8654 -0.0000 0.5011
vn 0.7896 -0.0000 0.6137
vn 0.6992 -0.0000 0.7149
vn 0.5967 -0.0000 0.8025
vn 0.4846 -0.0000 0.8747
vn 0.3660 -0.0000 0.9306
vn 0.2438 -0.0000 0.9698
vn 0.1210 -0.0000 0.9927
vn 0.0211 -0.0000 0.9998
vn -0.0362 -0.0000 0.9993
vn -0.0750 -0.0000 0.9972
vn -0.1165 -0.0000 0.9932
vn -0.1596 -0.0000 0.9872
vn -0.2034 -0.0000 0.9791
vn -0.2467 -0.0000 0.9691
vn -0.2886 -0.0000 0.9574
vn -0.3282 -0.0000 0.9446
vn -0.3647 -0.0000 0.9311
vn -0.3978 -0.0000 0.9175
vn -0.4271 -0.0000 0.9042
vn -0.8488 -0.0000 0.5288
vn -0.4785 -0.0000 -0.8781
vn 0.5248 -0.0000 -0.8512
vn 0.4888 -0.0000 -0.8724
vn 0.4502 -0.0000 -0.8930
vn 0.4090 -0.0000 -0.9126
vn 0.3652 -0.0000 -0.9309
vn 0.3189 -0.0000 -0.9478
vn 0.2702 -0.0000 -0.9628
vn 0.2193 -0.0000 -0.9757
vn 0.1664 -0.0000 -0.9860
vn 0.1120 -0.0000 -0.9937
vn 0.0564 -0.0000 -0.9984
vn -0.0159 -0.0000 -0.9999
vn -0.1198 -0.0000 -0.9928
vn -0.2371 -0.0000 -0.9715
vn -0.3503 -0.0000 -0.9366
vn -0.4585 -0.0000 -0.8887
vn -0.5614 -0.0000 -0.8276
vn -0.6581 -0.0000 -0.7529
vn -0.7478 -0.0000 -0.6639
vn -0.8287 -0.0000 -0.5597
vn -0.8982 -0.0000 -0.4397
vn -0.9526 -0.0000 -0.3044
vn -0.9877 -0.0000 -0.1560
vn -1.0000 -0.0000 0.0035
vn -0.9849 -0.0000 0.1734
vn -0.9385 -0.0000 0.3453
vn -0.8616 -0.0000 0.5075
vn -0.7583 -0.0000 0.6519
vn -0.6351 -0.0000 0.7725
vn -0.5001 -0.0000 0.8660
vn -0.3610 -0.0000 0.9326
vn -0.2243 -0.0000 0.9745
vn -0.0945 -0.0000 0.9955
vn 0.0256 -0.0000 0.9997
vn 0.1347 -0.0000 0.9909
vn -0.6379 -0.0000 0.7701
vn -0.7071 -0.0000 -0.7071
vn 0.7071 -0.0000 -0.7071
vn 0.7071 -0.0000 0.7071
vn -0.0000 -1.0000 -0.0000
vt 0.649351 0.000000
vt 0.233766 0.000000
vt 0.662338 0.000000
vt 0.675325 0.000000
vt 0.688312 0.000000
vt 0.701299 0.000000
vt 0.220779 0.000000
vt 0.714286 0.000000
vt 0.727273 0.000000
vt 0.207792 0.000000
vt 0.740260 0.000000
vt 0.753247 0.000000
vt 0.194805 0.000000
vt 0.766234 0.000000
vt 0.779221 0.000000
vt 0.181818 0.000000
vt 0.792208 0.000000
vt 0.805195 0.000000
vt 0.168831 0.000000
vt 0.818182 0.000000
vt 0.831169 0.000000
vt 0.155844 0.000000
vt 0.844156 0.000000
vt 0.142857 0.000000
vt 0.857143 0.000000
vt 0.129870 0.000000
vt 0.870130 0.000000
vt 0.883117 0.000000
vt 0.909091 0.000000
vt 0.116883 0.000000
vt 0.922078 0.000000
vt 0.896104 0.000000
vt 0.103896 0.000000
vt 0.935065 0.000000
vt 0.090909 0.000000
vt 0.948052 0.000000
vt 0.077922 0.000000
vt 0.012987 0.000000
vt 0.038961 0.000000
vt 0.025974 0.000000
vt 0.961039 0.000000
vt 0.064935 0.000000
vt 0.051948 0.000000
vt 0.000000 0.000000
vt 1.000000 0.000000
vt 0.987013 0.000000
vt 0.974026 0.000000
vt 0.012821 1.000000
vt 0.025641 1.000000
vt 0.025641 0.000000
vt 0.012821 0.000000
vt 0.038462 1.000000
vt 0.038462 0.000000
vt 0.051282 1.000000
vt 0.051282 0.000000
vt 0.064103 1.000000
vt 0.064103 0.000000
vt 0.076923 1.000000
vt 0.076923 0.000000
vt 0.089744 1.000000
vt 0.089744 0.000000
vt 0.102564 1.000000
vt 0.102564 0.000000
vt 0.115385 1.000000
vt 0.115385 0.000000
vt 0.128205 1.000000
vt 0.128205 0.000000
vt 0.141026 1.000000
vt 0.141026 0.000000
vt 0.153846 1.000000
vt 0.153846 0.000000
vt 0.166667 1.000000
vt 0.166667 0.000000
vt 0.179487 1.000000
vt 0.179487 0.000000
vt 0.192308 1.000000
vt 0.192308 0.000000
vt 0.205128 1.000000
vt 0.205128 0.000000
vt 0.217949 1.000000
vt 0.217949 0.000000
vt 0.230769 1.000000
vt 0.230769 0.000000
vt 0.243590 1.000000
vt 0.243590 0.000000
vt 0.256410 1.000000
vt 0.256410 0.000000
vt 0.269231 1.000000
vt 0.269231 0.000000
vt 0.282051 1.000000
vt 0.282051 0.000000
vt 0.294872 1.000000
vt 0.294872 0.000000
vt 0.307692 1.000000
vt 0.307692 0.000000
vt 0.320513 1.000000
vt 0.320513 0.000000
vt 0.333333 1.000000
vt 0.333333 0.000000
vt 0.346154 1.000000
vt 0.346154 0.000000
vt 0.358974 1.000000
vt 0.358974 0.000000
vt 0.371795 1.000000
vt 0.371795 0.000000
vt 0.384615 1.000000
vt 0.384615 0.000000
vt 0.397436 1.000000
vt 0.397436 0.000000
vt 0.410256 1.000000
vt 0.410256 0.000000
vt 0.423077 1.000000
vt 0.423077 0.000000
vt 0.435897 1.000000
vt 0.435897 0.000000
vt 0.448718 1.000000
vt 0.448718 0.000000
vt 0.461538 1.000000
vt 0.461538 0.000000
vt 0.474359 1.000000
vt 0.474359 0.000000
vt 0.487179 1.000000
vt 0.487179 0.000000
vt 0.500000 1.000000
vt 0.500000 0.000000
vt 0.512821 1.000000
vt 0.512821 0.000000
vt 0.525641 1.000000
vt 0.525641 0.000000
vt 0.538462 1.000000
vt 0.538462 0.000000
vt 0.551282 1.000000
vt 0.551282 0.000000
vt 0.564103 1.000000
vt 0.564103 0.000000
vt 0.576923 1.000000
vt 0.576923 0.000000
vt 0.589744 1.000000
vt 0.589744 0.000000
vt 0.602564 1.000000
vt 0.602564 0.000000
vt 0.615385 1.000000
vt 0.615385 0.000000
vt 0.628205 1.000000
vt 0.628205 0.000000
vt 0.641026 1.000000
vt 0.641026 0.000000
vt 0.653846 1.000000
vt 0.653846 0.000000
vt 0.666667 1.000000
vt 0.666667 0.000000
vt 0.679487 1.000000
vt 0.679487 0.000000
vt 0.692308 1.000000
vt 0.692308 0.000000
vt 0.705128 1.000000
vt 0.705128 0.000000
vt 0.717949 1.000000
vt 0.717949 0.000000
vt 0.730769 1.000000
vt 0.730769 0.000000
vt 0.743590 1.000000
vt 0.743590 0.000000
vt 0.756410 1.000000
vt 0.756410 0.000000
vt 0.769231 1.000000
vt 0.769231 0.000000
vt 0.782051 1.000000
vt 0.782051 0.000000
vt 0.794872 1.000000
vt 0.794872 0.000000
vt 0.807692 1.000000
vt 0.807692 0.000000
vt 0.820513 1.000000
vt 0.820513 0.000000
vt 0.833333 1.000000
vt 0.833333 0.000000
vt 0.846154 1.000000
vt 0.846154 0.000000
vt 0.858974 1.000000
vt 0.858974 0.000000
vt 0.871795 1.000000
vt 0.871795 0.000000
vt 0.884615 1.000000
vt 0.884615 0.000000
vt 0.897436 1.000000
vt 0.897436 0.000000
vt 0.910256 1.000000
vt 0.910256 0.000000
vt 0.923077 1.000000
vt 0.923077 0.000000
vt 0.935897 1.000000
vt 0.935897 0.000000
vt 0.948718 1.000000
vt 0.948718 0.000000
vt 0.961538 1.000000
vt 0.961538 0.000000
vt 0.974359 1.000000
vt 0.974359 0.000000
vt 0.987179 1.000000
vt 0.987179 0.000000
vt 1.000000 1.000000
vt 0.000000 1.000000
vt 0.337662 0.000000
vt 0.350649 0.000000
vt 0.324675 0.000000
vt 0.363636 0.000000
vt 0.376623 0.000000
vt 0.311688 0.000000
vt 0.389610 0.000000
vt 0.298701 0.000000
vt 0.402597 0.000000
vt 0.415584 0.000000
vt 0.285714 0.000000
vt 0.428571 0.000000
vt 0.441558 0.000000
vt 0.454545 0.000000
vt 0.467532 0.000000
vt 0.272727 0.000000
vt 0.480519 0.000000
vt 0.259740 0.000000
vt 0.246753 0.000000
vt 0.493506 0.000000
vt 0.506494 0.000000
vt 0.519481 0.000000
vt 0.532468 0.000000
vt 0.545455 0.000000
vt 0.558442 0.000000
vt 0.571429 0.000000
vt 0.584416 0.000000
vt 0.597403 0.000000
vt 0.610390 0.000000
vt 0.623377 0.000000
vt 0.636364 0.000000
s 0
f 14/1/1 19/2/1 15/3/1
f 15/3/1 19/2/1 16/4/1
f 16/4/1 19/2/1 18/5/1
f 17/6/1 20/7/1 21/8/1
f 18/5/1 20/7/1 17/6/1
f 18/5/1 19/2/1 20/7/1
f 22/9/1 20/7/1 24/10/1
f 21/8/1 20/7/1 22/9/1
f 22/9/1 24/10/1 23/11/1
f 23/11/1 24/10/1 25/12/1
f 25/12/1 24/10/1 28/13/1
f 25/12/1 28/13/1 26/14/1
f 26/14/1 28/13/1 27/15/1
f 27/15/1 29/16/1 30/17/1
f 27/15/1 28/13/1 29/16/1
f 30/17/1 29/16/1 31/18/1
f 31/18/1 29/16/1 34/19/1
f 31/18/1 34/19/1 33/20/1
f 32/21/1 35/22/1 37/23/1
f 33/20/1 35/22/1 32/21/1
f 33/20/1 34/19/1 35/22/1
f 37/23/1 35/22/1 36/24/1
f 38/25/1 36/24/1 43/26/1
f 37/23/1 36/24/1 38/25/1
f 38/25/1 43/26/1 39/27/1
f 39/27/1 43/26/1 42/28/1
f 40/29/1 44/30/1 46/31/1
f 41/32/1 44/30/1 40/29/1
f 42/28/1 44/30/1 41/32/1
f 42/28/1 43/26/1 44/30/1
f 46/31/1 44/30/1 45/33/1
f 47/34/1 46/31/1 45/33/1
f 47/34/1 45/33/1 48/35/1
f 51/36/1 47/34/1 48/35/1
f 51/36/1 48/35/1 52/37/1
f 59/38/1 50/39/1 49/40/1
f 58/41/1 50/39/1 59/38/1
f 58/41/1 51/36/1 52/37/1
f 58/41/1 52/37/1 53/42/1
f 58/41/1 54/43/1 50/39/1
f 58/41/1 53/42/1 54/43/1
f 60/44/1 55/45/1 56/46/1
f 60/44/1 56/46/1 57/47/1
f 58/41/1 60/44/1 57/47/1
f 58/41/1 59/38/1 60/44/1
s 1
f 61/48/2 64/49/3 62/50/3 215/51/2
f 64/49/3 65/52/4 63/53/4 62/50/3
f 65/52/4 66/54/5 68/55/5 63/53/4
f 66/54/5 67/56/6 69/57/6 68/55/5
f 67/56/6 72/58/7 70/59/7 69/57/6
f 72/58/7 73/60/8 71/61/8 70/59/7
f 73/60/8 74/62/9 76/63/9 71/61/8
f 74/62/9 75/64/10 77/65/10 76/63/9
f 75/64/10 80/66/11 78/67/11 77/65/10
f 80/66/11 81/68/12 79/69/12 78/67/11
f 81/68/12 82/70/13 84/71/13 79/69/12
f 82/70/13 83/72/14 85/73/14 84/71/13
f 83/72/14 88/74/15 86/75/15 85/73/14
f 88/74/15 89/76/16 87/77/16 86/75/15
f 89/76/16 90/78/17 92/79/17 87/77/16
f 90/78/17 91/80/18 93/81/18 92/79/17
f 91/80/18 96/82/19 94/83/19 93/81/18
f 96/82/19 97/84/20 95/85/20 94/83/19
f 97/84/20 98/86/21 100/87/21 95/85/20
f 98/86/21 99/88/22 101/89/22 100/87/21
f 99/88/22 104/90/23 102/91/23 101/89/22
f 104/90/23 105/92/24 103/93/24 102/91/23
f 105/92/24 106/94/25 108/95/25 103/93/24
f 106/94/25 107/96/26 109/97/26 108/95/25
f 107/96/26 112/98/27 110/99/27 109/97/26
f 112/98/27 113/100/28 111/101/28 110/99/27
f 113/100/28 114/102/29 116/103/29 111/101/28
f 114/102/29 115/104/30 117/105/30 116/103/29
f 115/104/30 120/106/31 118/107/31 117/105/30
f 120/106/31 121/108/32 119/109/32 118/107/31
f 121/108/32 122/110/33 124/111/33 119/109/32
f 122/110/33 123/112/34 125/113/34 124/111/33
f 123/112/34 128/114/35 126/115/35 125/113/34
f 128/114/35 129/116/36 127/117/36 126/115/35
f 129/116/36 130/118/37 132/119/37 127/117/36
f 130/118/37 131/120/38 133/121/38 132/119/37
f 131/120/38 136/122/39 134/123/39 133/121/38
f 136/122/39 137/124/40 135/125/40 134/123/39
f 137/124/40 138/126/41 140/127/41 135/125/40
f 138/126/41 139/128/42 141/129/42 140/127/41
f 139/128/42 144/130/43 142/131/43 141/129/42
f 144/130/43 145/132/44 143/133/44 142/131/43
f 145/132/44 146/134/45 148/135/45 143/133/44
f 146/134/45 147/136/46 149/137/46 148/135/45
f 147/136/46 152/138/47 150/139/47 149/137/46
f 152/138/47 153/140/48 151/141/48 150/139/47
f 153/140/48 154/142/49 156/143/49 151/141/48
f 154/142/49 155/144/50 157/145/50 156/143/49
f 155/144/50 160/146/51 158/147/51 157/145/50
f 160/146/51 161/148/52 159/149/52 158/147/51
f 161/148/52 162/150/53 164/151/53 159/149/52
f 162/150/53 163/152/54 165/153/54 164/151/53
f 163/152/54 168/154/55 166/155/55 165/153/54
f 168/154/55 169/156/56 167/157/56 166/155/55
f 169/156/56 170/158/57 172/159/57 167/157/56
f 170/158/57 171/160/58 173/161/58 172/159/57
f 171/160/58 176/162/59 174/163/59 173/161/58
f 176/162/59 177/164/60 175/165/60 174/163/59
f 177/164/60 178/166/61 180/167/61 175/165/60
f 178/166/61 179/168/62 181/169/62 180/167/61
f 179/168/62 184/170/63 182/171/63 181/169/62
f 184/170/63 185/172/64 183/173/64 182/171/63
f 185/172/64 186/174/65 188/175/65 183/173/64
f 186/174/65 187/176/66 189/177/66 188/175/65
f 187/176/66 192/178/67 190/179/67 189/177/66
f 192/178/67 193/180/68 191/181/68 190/179/67
f 193/180/68 194/182/69 196/183/69 191/181/68
f 194/182/69 195/184/70 197/185/70 196/183/69
f 195/184/70 200/186/71 198/187/71 197/185/70
f 200/186/71 201/188/72 199/189/72 198/187/71
f 201/188/72 202/190/73 204/191/73 199/189/72
f 202/190/73 203/192/74 205/193/74 204/191/73
f 203/192/74 208/194/75 206/195/75 205/193/74
f 208/194/75 209/196/76 207/197/76 206/195/75
f 209/196/76 210/198/77 212/199/77 207/197/76
f 210/198/77 211/200/78 213/201/78 212/199/77
f 211/200/78 214/202/78 216/45/78 213/201/78
f 214/203/78 61/48/2 215/51/2 216/44/78
s 0
f 293/38/79 217/40/79 288/39/79
f 218/204/79 220/205/79 221/206/79
f 219/207/79 223/208/79 222/209/79
f 220/205/79 219/207/79 222/209/79
f 220/205/79 222/209/79 221/206/79
f 224/210/79 226/211/79 222/209/79
f 223/208/79 224/210/79 222/209/79
f 224/210/79 225/212/79 226/211/79
f 225/212/79 227/213/79 226/211/79
f 227/213/79 231/214/79 226/211/79
f 227/213/79 228/215/79 231/214/79
f 228/215/79 229/216/79 231/214/79
f 229/216/79 230/217/79 231/214/79
f 230/217/79 233/218/79 232/219/79
f 230/217/79 232/219/79 231/214/79
f 233/218/79 248/220/79 232/219/79
f 248/220/79 234/221/79 232/219/79
f 248/220/79 254/2/79 235/222/79
f 248/220/79 235/222/79 234/221/79
f 248/220/79 236/223/79 237/224/79
f 248/220/79 237/224/79 238/225/79
f 248/220/79 238/225/79 239/226/79
f 248/220/79 239/226/79 240/227/79
f 248/220/79 240/227/79 241/228/79
f 248/220/79 241/228/79 242/229/79
f 248/220/79 242/229/79 243/230/79
f 248/220/79 243/230/79 244/231/79
f 248/220/79 244/231/79 245/232/79
f 248/220/79 245/232/79 246/233/79
f 248/220/79 246/233/79 247/234/79
f 248/220/79 247/234/79 249/1/79
f 248/220/79 249/1/79 254/2/79
f 249/1/79 250/3/79 254/2/79
f 250/3/79 251/4/79 254/2/79
f 251/4/79 253/5/79 254/2/79
f 252/6/79 256/8/79 255/7/79
f 253/5/79 252/6/79 255/7/79
f 253/5/79 255/7/79 254/2/79
f 257/9/79 259/10/79 255/7/79
f 256/8/79 257/9/79 255/7/79
f 257/9/79 258/11/79 259/10/79
f 258/11/79 260/12/79 259/10/79
f 260/12/79 263/13/79 259/10/79
f 260/12/79 261/14/79 263/13/79
f 261/14/79 262/15/79 263/13/79
f 262/15/79 265/17/79 264/16/79
f 262/15/79 264/16/79 263/13/79
f 266/18/79 267/19/79 264/16/79
f 265/17/79 266/18/79 264/16/79
f 266/18/79 268/20/79 267/19/79
f 268/20/79 270/22/79 267/19/79
f 268/20/79 269/21/79 270/22/79
f 269/21/79 271/23/79 270/22/79
f 271/23/79 272/24/79 270/22/79
f 273/25/79 278/26/79 272/24/79
f 271/23/79 273/25/79 272/24/79
f 273/25/79 274/27/79 278/26/79
f 274/27/79 277/28/79 278/26/79
f 275/29/79 281/31/79 279/30/79
f 276/32/79 275/29/79 279/30/79
f 277/28/79 276/32/79 279/30/79
f 277/28/79 279/30/79 278/26/79
f 281/31/79 280/33/79 279/30/79
f 282/34/79 283/35/79 280/33/79
f 282/34/79 280/33/79 281/31/79
f 284/36/79 283/35/79 282/34/79
f 284/36/79 285/37/79 283/35/79
f 292/41/79 285/37/79 284/36/79
f 292/41/79 286/42/79 285/37/79
f 292/41/79 287/43/79 286/42/79
f 292/41/79 293/38/79 288/39/79
f 292/41/79 288/39/79 287/43/79
f 294/44/79 290/46/79 289/45/79
f 294/44/79 291/47/79 290/46/79
f 292/41/79 291/47/79 294/44/79
f 292/41/79 294/44/79 293/38/79
f 295/204/1 296/206/1 297/205/1
f 297/205/1 296/206/1 301/209/1
f 297/205/1 301/209/1 298/207/1
f 298/207/1 301/209/1 299/208/1
f 299/208/1 301/209/1 300/210/1
f 300/210/1 302/211/1 303/212/1
f 300/210/1 301/209/1 302/211/1
f 303/212/1 302/211/1 304/213/1
f 304/213/1 302/211/1 308/214/1
f 304/213/1 308/214/1 305/215/1
f 305/215/1 308/214/1 306/216/1
f 306/216/1 308/214/1 307/217/1
f 307/217/1 310/219/1 311/218/1
f 307/217/1 308/214/1 310/219/1
f 13/220/1 309/222/1 19/2/1
f 311/218/1 310/219/1 13/220/1
f 13/220/1 312/221/1 309/222/1
f 13/220/1 310/219/1 312/221/1
f 13/220/1 2/224/1 1/223/1
f 13/220/1 3/225/1 2/224/1
f 13/220/1 4/226/1 3/225/1
f 13/220/1 5/227/1 4/226/1
f 13/220/1 6/228/1 5/227/1
f 13/220/1 7/229/1 6/228/1
f 13/220/1 8/230/1 7/229/1
f 13/220/1 9/231/1 8/230/1
f 13/220/1 10/232/1 9/231/1
f 13/220/1 11/233/1 10/232/1
f 13/220/1 12/234/1 11/233/1
f 13/220/1 14/1/1 12/234/1
f 13/220/1 19/2/1 14/1/1
