# Blender 4.1.1
# www.blender.org
o Text.007
v -0.215247 0.100000 -0.263393
v -0.215247 0.100000 -0.356393
v 0.225753 0.100000 -0.356393
v -0.083247 0.100000 0.334607
v 0.079753 0.100000 -0.263393
v -0.170247 0.100000 0.296607
v -0.215247 -0.100000 -0.356393
v -0.215247 -0.100000 -0.263393
v 0.225753 -0.100000 -0.356393
v -0.083247 -0.100000 0.334607
v 0.079753 -0.100000 -0.263393
v -0.170247 -0.100000 0.296607
v -0.083247 0.100000 0.334607
v 0.225753 -0.100000 -0.356393
v 0.225753 0.100000 -0.356393
v -0.215247 -0.100000 -0.356393
v -0.215247 0.100000 -0.356393
v -0.215247 0.100000 -0.263393
v 0.079753 0.100000 -0.263393
v -0.215247 -0.100000 -0.263393
v 0.079753 -0.100000 -0.263393
v -0.083247 -0.100000 0.334607
v -0.170247 0.100000 0.296607
v -0.170247 -0.100000 0.296607
vn -0.0000 1.0000 -0.0000
vn -0.0000 -1.0000 -0.0000
vn 0.8391 -0.0000 -0.5440
vn 0.3609 -0.0000 0.9326
vn -0.7071 -0.0000 -0.7071
vn -0.7071 -0.0000 0.7071
vn -0.8389 -0.0000 0.5442
vn -0.9325 -0.0000 0.3612
vt 0.400000 0.000000
vt 0.200000 0.000000
vt 0.800000 0.000000
vt 0.600000 0.000000
vt 1.000000 0.000000
vt 0.000000 0.000000
vt 0.666667 1.000000
vt 0.833333 1.000000
vt 0.833333 0.000000
vt 0.666667 0.000000
vt 0.500000 1.000000
vt 0.500000 0.000000
vt 0.333333 1.000000
vt 0.333333 0.000000
vt 0.166667 1.000000
vt 0.166667 0.000000
vt 0.000000 1.000000
vt 1.000000 1.000000
s 0
f 1/1/1 5/2/1 3/3/1
f 1/1/1 3/3/1 2/4/1
f 5/2/1 4/5/1 3/3/1
f 6/6/1 4/5/1 5/2/1
f 8/1/2 7/4/2 9/3/2
f 8/1/2 9/3/2 11/2/2
f 11/2/2 9/3/2 10/5/2
f 12/6/2 11/2/2 10/5/2
s 1
f 15/7/3 13/8/4 22/9/4 14/10/3
f 17/11/5 15/7/3 14/10/3 16/12/5
f 18/13/6 17/11/5 16/12/5 20/14/6
f 19/15/7 18/13/6 20/14/6 21/16/7
f 23/17/8 19/15/7 21/16/7 24/6/8
f 13/8/4 23/18/8 24/5/8 22/9/4
