# Blender 4.1.1
# www.blender.org
o knight
v 0.062880 5.346679 2.449122
v 0.224840 5.228013 2.229348
v 0.401217 6.018987 2.202042
v 0.638578 5.590691 1.821334
v 0.197160 5.126868 2.042022
v 0.000000 5.033791 1.869637
v -0.197161 5.126868 2.042022
v -0.224840 5.228013 2.229348
v -0.638579 5.590691 1.821334
v -0.062880 5.346679 2.449122
v -0.401219 6.018987 2.202042
v 0.000000 5.357000 2.468238
v 0.000000 6.143199 2.312452
v 0.609397 7.215876 -0.229567
v 0.069291 7.439595 -0.375973
v 0.900000 6.568297 -0.026819
v 0.753837 7.156047 -0.094677
v 0.922231 6.621968 0.066194
v 0.111985 7.421910 0.413015
v 0.069291 7.439595 0.566976
v 0.515900 7.254605 0.440899
v 0.111985 7.421910 -0.158485
v -0.609397 7.215876 -0.229567
v -0.069291 7.439595 -0.375973
v 0.069291 7.794334 -0.362016
v 0.069291 7.832114 -0.112139
v -0.069291 7.794334 -0.362016
v -0.069291 7.832114 -0.112139
v 0.069291 6.120061 -1.638765
v 0.069291 4.753675 -1.471299
v -0.069291 7.439595 0.566976
v -0.469815 7.072285 1.323429
v 0.000000 7.266889 1.397417
v 0.469815 7.072285 1.323429
v -0.111985 7.421910 -0.158485
v -0.111985 7.421910 0.413015
v -0.515900 7.254605 0.440899
v -0.753837 7.156047 -0.094677
v 0.000000 0.819067 -1.798116
v 0.000000 0.969067 -1.798116
v 1.271460 0.819067 -1.271462
v 1.271460 0.969067 -1.271462
v 0.000000 0.589254 -1.605281
v 1.135104 0.589254 -1.135105
v 0.000000 0.300000 -1.950000
v 1.378859 0.300000 -1.378857
v 0.000000 -0.000000 -1.950000
v 1.378859 -0.000000 -1.378857
v -1.271460 0.819067 -1.271462
v -1.271460 0.969067 -1.271462
v -1.135104 0.589254 -1.135105
v -1.378859 0.300000 -1.378857
v -1.378859 -0.000000 -1.378857
v 0.006257 4.812831 -1.471299
v -0.059433 4.748491 -1.471299
v -0.069291 4.748491 -1.471299
v -0.069291 4.748491 -1.467215
v -0.069291 6.120061 -1.638765
v 0.802500 2.693526 -0.000000
v 0.567453 2.693526 0.567453
v 1.798116 0.969067 0.000000
v 1.271460 0.969068 1.271459
v 1.798116 0.819067 0.000000
v 1.271460 0.819068 1.271459
v 1.605280 0.589254 0.000000
v 1.135104 0.589254 1.135105
v 1.950000 0.300000 0.000000
v 1.378859 0.300000 1.378857
v 1.950000 -0.000000 0.000000
v 1.378859 -0.000000 1.378857
v 0.567453 2.693526 -0.567453
v 0.000000 2.693526 -0.802501
v -0.567453 2.693526 -0.567453
v -0.567453 2.693526 0.567453
v -0.802500 2.693526 -0.000000
v -1.271460 0.969068 1.271459
v -1.798116 0.969067 0.000000
v -1.271460 0.819068 1.271459
v -1.798116 0.819067 0.000000
v -1.135104 0.589254 1.135105
v -1.605280 0.589254 0.000000
v -1.378859 0.300000 1.378857
v -1.950000 0.300000 0.000000
v -1.378859 -0.000000 1.378857
v -1.950000 -0.000000 0.000000
v 0.000000 0.969068 1.798116
v 0.000000 2.693526 0.802501
v 0.000000 0.819068 1.798116
v 0.000000 0.589254 1.605279
v 0.000000 0.300000 1.950000
v 0.000000 -0.000000 1.950000
v 1.729644 3.893526 -0.000000
v 1.179109 3.893526 1.329110
v 1.329109 3.893526 -1.329110
v 0.026747 3.893525 -1.868566
v -1.340189 3.893526 -1.302363
v -1.729644 3.893526 -0.000000
v -1.179109 3.893526 1.329110
v 0.000000 3.893526 2.179644
v 0.636396 5.093525 0.186396
v 0.000000 5.093525 0.600000
v 0.900000 5.093525 -0.450000
v -0.900000 5.093525 -0.450000
v -0.636397 5.093525 0.186396
v 0.000000 5.366693 0.600000
v -0.636397 5.931900 0.340402
v 0.636396 5.931900 0.340402
v 0.636396 5.931900 0.340402
v -0.922232 6.621968 0.066194
v -0.900000 6.568297 -0.026819
v 0.375000 8.100000 0.149999
v 0.225000 8.100000 0.149999
v 0.225000 8.100000 0.300000
v 0.375000 8.100000 0.300000
v -0.375000 8.100000 0.149999
v -0.225000 8.100000 0.149999
v -0.375000 8.100000 0.300000
v -0.225000 8.100000 0.300000
v 0.636396 5.093525 0.186396
v 0.000000 5.093525 0.600000
vn -0.3024 -0.6127 0.7302
vn -0.9342 0.2342 0.2691
vn 0.2573 0.7403 -0.6211
vn 0.9239 -0.0000 -0.3827
vn 0.9239 -0.0000 0.3827
vn -0.0000 -0.8799 0.4751
vn 0.3827 -0.0000 0.9239
vn -0.7302 -0.6127 -0.3024
vn -0.3827 0.9239 -0.0000
vn 0.2946 -0.6383 -0.7112
vn -0.0000 -1.0000 -0.0000
vn 0.9750 0.1975 0.1018
vn -0.9239 -0.0000 0.3827
vn -0.9239 -0.0000 -0.3827
vn -0.3377 0.4706 -0.8152
vn 0.3024 -0.6127 0.7302
vn 0.3542 0.3618 -0.8624
vn -0.0285 0.4048 -0.9140
vn -0.8152 0.4706 0.3377
vn 0.6211 0.7403 0.2573
vn 0.7520 -0.5810 0.3115
vn 0.3827 -0.0000 -0.9239
vn 1.0000 -0.0000 -0.0000
vn -0.2970 -0.6305 -0.7171
vn -0.3827 -0.0000 -0.9239
vn 0.7520 -0.6091 -0.2520
vn 0.9483 0.2985 -0.1080
vn -0.7520 -0.5810 0.3115
vn -1.0000 -0.0000 -0.0000
vn 0.7302 -0.6127 0.3024
vn 0.9864 0.1644 -0.0000
vn -0.7520 -0.6095 -0.2511
vn -0.9489 0.2988 -0.1014
vn 0.3671 0.5846 0.7235
vn 0.3827 0.9239 -0.0000
vn 0.7302 -0.6127 -0.3024
vn -0.6211 0.7403 -0.2573
vn -0.0000 0.1644 0.9864
vn 0.0023 -0.1240 -0.9923
vn 0.3921 0.7274 0.5631
vn -0.3827 -0.0000 0.9239
vn 0.8171 -0.5672 -0.1035
vn -0.3941 -0.6654 0.6340
vn -0.0000 1.0000 -0.0000
vn 0.3135 0.1846 0.9315
vn 0.3377 0.4706 -0.8152
vn 0.7277 0.6161 0.3014
vn -0.9750 0.1975 0.1018
vn -0.3024 -0.6127 -0.7302
vn 0.8152 0.4706 0.3377
vn -0.2573 0.7403 -0.6211
vn 0.8152 0.4706 -0.3377
vn 0.3941 -0.6654 0.6340
vn 0.3024 -0.6127 -0.7302
vn -0.7277 0.6161 0.3014
vn -0.7568 -0.1468 0.6370
vn -0.7302 -0.6127 0.3024
vn -0.8152 0.4706 -0.3377
vn -0.2573 0.7403 0.6211
vn 0.7568 -0.1468 0.6370
vn -0.6211 0.7403 0.2573
vn 0.2573 0.7403 0.6211
vn -0.8171 -0.5672 -0.1035
vn 0.9342 0.2342 0.2691
vn 0.0285 0.4048 -0.9140
vn 0.6211 0.7403 -0.2573
vn -0.3588 0.3562 -0.8627
vn -0.3921 0.7274 0.5631
vn -0.9864 0.1644 -0.0000
vn 0.3377 0.4706 0.8152
vn -0.3135 0.1846 0.9315
vn -0.3377 0.4706 0.8152
vn -0.3671 0.5846 0.7235
vn -0.0000 -0.0000 1.0000
vn -0.0000 -0.0000 -1.0000
vn 0.9059 -0.1025 0.4109
vn -0.9059 -0.1025 0.4109
vn 0.5049 -0.1185 0.8550
vn -0.5049 -0.1185 0.8550
vn 0.5923 -0.7778 -0.2103
vn -0.5923 -0.7778 -0.2103
vn -0.0000 0.6064 -0.7952
vn -0.0000 0.9888 -0.1495
vn -0.0000 0.8658 0.5004
vn 0.6943 0.6968 0.1802
vn -0.6101 0.7820 0.1271
vn -0.0000 0.9791 0.2036
vn 0.4131 0.8858 0.2114
vn -0.4131 0.8858 0.2114
vt 0.933385 0.881739
vt 0.918932 0.870277
vt 0.957926 0.774864
vt 0.977063 0.774864
vt 0.133516 -0.000000
vt 0.252630 0.022584
vt 0.232458 0.065225
vt 0.066966 0.113311
vt 0.040958 0.068557
vt 0.561444 0.609109
vt 0.458626 0.608958
vt 0.445303 0.582552
vt 0.570201 0.582735
vt 0.954086 0.278125
vt 0.958097 0.165907
vt 0.983226 0.165758
vt 0.979214 0.277975
vt 0.983226 0.396978
vt 0.958097 0.397127
vt 0.830689 0.485976
vt 0.828362 0.469056
vt 0.841976 0.449205
vt 0.847261 0.447479
vt 0.852547 0.449205
vt 0.866161 0.469056
vt 0.863834 0.485976
vt 0.847261 0.501546
vt 0.723309 0.881739
vt 0.731106 0.774864
vt 0.743517 0.774864
vt 0.735721 0.881739
vt 0.309981 0.591725
vt 0.323709 0.582552
vt 0.323709 0.696917
vt 0.309981 0.693825
vt 0.796311 0.924189
vt 0.802765 0.845292
vt 0.845256 0.862232
vt 0.804714 0.863860
vt 0.800803 0.911678
vt 0.833138 0.917518
vt 0.570201 0.881739
vt 0.637697 0.923316
vt 0.637697 0.974844
vt 0.570201 1.000000
vt 0.303901 0.582552
vt 0.304240 0.583381
vt 0.303901 0.583381
vt 0.337993 0.814356
vt 0.350540 0.815218
vt 0.356988 0.887633
vt 0.300103 0.887633
vt 0.026491 0.506048
vt 0.137672 0.536070
vt 0.134509 0.548217
vt 0.023329 0.518195
vt 0.126897 0.592312
vt 0.222409 0.609368
vt 0.216083 0.633662
vt 0.120572 0.616606
vt 0.669185 0.427885
vt 0.691295 0.585688
vt 0.576523 0.582898
vt 0.617962 0.426640
vt 0.918932 0.679451
vt 0.933385 0.667990
vt 0.461829 0.532800
vt 0.566883 0.500883
vt 0.570201 0.513002
vt 0.465146 0.544919
vt 0.788630 0.331456
vt 0.695028 0.345477
vt 0.684545 0.263528
vt 0.689655 0.268137
vt 0.665330 0.029476
vt 0.705865 0.043322
vt 0.918932 0.883972
vt 0.930903 0.881739
vt 0.954687 0.939384
vt 0.918932 0.964531
vt 0.152189 0.382914
vt 0.102569 0.369515
vt 0.385922 0.681868
vt 0.385922 0.785129
vt 0.356988 0.796555
vt 0.356988 0.671119
vt 0.397420 0.295959
vt 0.507238 0.262595
vt 0.474483 0.370951
vt 0.427597 0.385195
vt 0.782676 0.572000
vt 0.782676 0.584371
vt 0.691295 0.598060
vt 0.811273 0.213343
vt 0.874411 0.447479
vt 0.793768 0.364939
vt 0.794182 0.189016
vt 0.808994 0.173890
vt 0.874411 0.165758
vt 0.571637 0.342477
vt 0.006325 0.559754
vt 0.000000 0.584048
vt 0.570201 0.640221
vt 0.694668 0.643247
vt 0.694668 0.667990
vt 0.570201 0.664964
vt 0.382556 0.395529
vt 0.291334 0.321410
vt 0.364225 0.568072
vt 0.360907 0.555954
vt 0.309744 0.023192
vt 0.321426 0.026307
vt 0.345607 0.067373
vt 0.339348 0.073538
vt 0.337686 0.201852
vt 0.081609 0.266937
vt 0.197830 0.298320
vt 0.874680 0.440387
vt 0.874411 0.440199
vt 0.936588 0.209127
vt 0.938755 0.170609
vt 0.953349 0.184641
vt 0.954086 0.355899
vt 0.576523 0.595269
vt 0.564774 0.533388
vt 0.470986 0.561881
vt 0.417399 0.885565
vt 0.429976 0.885565
vt 0.439118 0.943157
vt 0.391201 0.943157
vt 0.191496 0.389933
vt 0.291334 0.316466
vt 0.261292 0.018206
vt 0.240191 0.197982
vt 0.238127 0.070943
vt 0.939318 0.447479
vt 0.945440 0.553826
vt 0.912268 0.564393
vt 0.900755 0.464730
vt 0.309684 0.706540
vt 0.323709 0.696916
vt 0.323709 0.753651
vt 0.380887 0.582552
vt 0.782107 0.910072
vt 0.786019 0.862254
vt 0.784743 0.923195
vt 0.747009 0.910118
vt 0.943737 0.113932
vt 0.943737 0.010671
vt 0.968107 0.000000
vt 0.968107 0.125436
vt 0.710909 0.883784
vt 0.723351 0.881739
vt 0.742098 0.937212
vt 0.710909 0.956787
vt 0.679219 0.269116
vt 0.678420 0.269159
vt 0.682139 0.158656
vt 0.693374 0.158062
vt 0.802777 0.780501
vt 0.918932 0.706153
vt 0.918932 0.828280
vt 0.805863 0.844172
vt 0.332165 0.698454
vt 0.348532 0.582552
vt 0.356988 0.698454
vt 0.384201 0.114808
vt 0.511694 0.110322
vt 0.554388 0.127345
vt 0.541560 0.139343
vt 0.849084 0.165758
vt 0.837308 0.115594
vt 0.943737 0.039846
vt 0.943737 0.161497
vt 0.291334 0.595196
vt 0.303901 0.595247
vt 0.303901 0.607839
vt 0.291334 0.607788
vt 0.944067 0.621947
vt 0.949311 0.621073
vt 0.291334 0.582552
vt 0.303901 0.582603
vt 0.303901 0.595196
vt 0.291334 0.595144
vt 0.709968 0.421776
vt 0.390269 0.185877
vt 0.855964 0.917444
vt 0.860743 0.845034
vt 0.872771 0.844172
vt 0.912198 0.917444
vt 0.687013 0.613997
vt 0.584549 0.611506
vt 0.793768 0.628402
vt 0.793768 0.653145
vt 0.323709 0.814356
vt 0.348532 0.814356
vt 0.793768 0.088036
vt 0.828797 0.000000
vt 0.723309 0.667990
vt 0.735721 0.667990
vt 0.768594 0.601777
vt 0.184542 0.182956
vt 0.018272 0.129725
vt 0.000000 0.113964
vt 0.125433 0.564210
vt 0.026176 0.537408
vt 0.225744 0.551798
vt 0.458626 0.858253
vt 0.561444 0.858404
vt 0.570201 0.885565
vt 0.445303 0.885381
vt 0.533991 0.065499
vt 0.570201 0.111651
vt 0.087695 0.634839
vt 0.211714 0.633662
vt 0.299409 0.721365
vt 0.299409 0.846572
vt 0.211714 0.935940
vt 0.087695 0.937118
vt 0.000000 0.849415
vt 0.000000 0.724207
vt 0.485064 0.941038
vt 0.503812 0.885565
vt 0.516253 0.887610
vt 0.516253 0.960614
vt 0.190152 0.112294
vt 0.030210 0.140910
vt 0.439259 0.000000
vt 0.356988 0.942553
vt 0.379518 0.885565
vt 0.391201 0.889000
vt 0.391201 0.971544
vt 0.607057 0.048546
vt 0.654095 0.030070
vt 0.678329 0.269095
vt 0.743518 0.757659
vt 0.803419 0.667990
vt 0.222582 0.563945
vt 0.439118 0.943223
vt 0.447091 0.885565
vt 0.459150 0.885565
vt 0.485064 0.943223
vt 0.570201 0.822562
vt 0.573681 0.774864
vt 0.979606 0.560517
vt 0.954621 0.621340
vt 0.570201 0.727166
vt 0.979606 0.460191
vt 0.304240 0.582552
vt 0.704786 0.988725
vt 0.637697 0.988725
vt 0.688306 0.935232
vt 0.710909 0.935232
vt 0.704786 0.881738
vt 0.637697 0.881738
vt 0.847261 0.602289
vt 0.793768 0.616086
vt 0.900755 0.616086
vt 0.653785 0.000594
vt 0.665020 0.000000
vt 0.792185 0.864942
vt 0.793626 0.844172
vt 0.805194 0.845166
vt 0.803753 0.865936
vt 0.743518 0.853491
vt 0.791197 0.844298
vt 0.363562 0.004766
vt 0.855964 0.874772
vt 0.821953 0.991694
vt 0.783614 0.993806
vt 0.743518 0.984956
s 0
f 78/1/1 80/2/1 89/3/1 88/4/1
f 32/5/2 38/6/2 109/7/2 9/8/2 11/9/2
f 43/10/3 44/11/3 46/12/3 45/13/3
f 69/14/4 48/15/4 46/16/4 67/17/4
f 67/17/5 68/18/5 70/19/5 69/14/5
f 5/20/6 2/21/6 1/22/6 12/23/6 10/24/6 8/25/6 7/26/6 6/27/6
f 62/28/7 86/29/7 88/30/7 64/31/7
f 81/32/8 79/33/8 49/34/8 51/35/8
f 31/36/9 24/37/9 23/38/9 35/39/9 36/40/9 37/41/9
f 94/42/10 71/43/10 72/44/10 95/45/10
f 55/46/11 57/47/11 56/48/11
f 111/49/12 114/50/12 21/51/12 14/52/12
f 76/53/13 77/54/13 79/55/13 78/56/13
f 83/57/14 52/58/14 53/59/14 85/60/14
f 72/61/15 40/62/15 50/63/15 73/64/15
f 88/4/16 89/3/16 66/65/16 64/66/16
f 61/67/5 62/68/5 64/69/5 63/70/5
f 94/71/17 95/72/17 54/73/17 30/74/17 15/75/17 14/76/17
f 115/77/18 116/78/18 35/79/18 23/80/18
f 75/81/19 77/54/19 76/53/19 74/82/19
f 65/83/20 66/84/20 68/85/20 67/86/20
f 92/87/21 93/88/21 60/89/21 59/90/21
f 40/62/22 42/91/22 41/92/22 39/93/22
f 15/94/23 30/95/23 29/96/23 25/97/23 26/98/23 20/99/23
f 96/100/24 95/72/24 72/61/24 73/64/24
f 82/101/13 83/57/13 85/60/13 84/102/13
f 52/103/25 45/104/25 47/105/25 53/106/25
f 71/107/26 94/108/26 92/87/26 59/90/26
f 63/70/4 41/109/4 42/110/4 61/67/4
f 94/108/27 14/111/27 17/112/27 18/113/27 16/114/27 102/115/27 92/87/27
f 74/82/28 98/116/28 97/117/28 75/81/28
f 56/118/29 57/119/29 24/120/29 31/99/29 28/121/29 27/122/29 58/123/29
f 50/63/25 40/62/25 39/93/25 49/124/25
f 64/69/30 66/125/30 65/126/30 63/70/30
f 116/127/31 118/128/31 36/129/31 35/130/31
f 73/131/32 75/81/32 97/117/32 96/132/32
f 23/133/33 96/132/33 97/117/33 103/134/33 110/135/33 109/7/33 38/6/33
f 33/136/34 13/137/34 3/138/34 34/139/34
f 17/140/35 14/141/35 21/142/35
f 63/70/36 65/126/36 44/143/36 41/109/36
f 19/144/35 22/145/35 20/146/35 21/147/35
f 81/148/37 51/149/37 52/150/37 83/151/37
f 114/152/38 113/153/38 19/154/38 21/155/38
f 55/156/39 56/157/39 58/158/39 29/159/39 30/74/39 54/73/39
f 101/160/40 99/161/40 93/162/40 100/163/40
f 90/164/41 82/33/41 84/165/41 91/166/41
f 108/167/42 16/114/42 18/113/42 4/168/42 2/169/42 5/170/42
f 74/171/43 87/172/43 99/173/43 98/174/43
f 116/175/44 115/176/44 117/177/44 118/178/44
f 1/179/45 3/138/45 13/137/45 12/180/45
f 111/181/44 112/182/44 113/183/44 114/184/44
f 71/185/46 42/91/46 40/62/46 72/61/46
f 102/115/47 100/186/47 93/88/47 92/87/47
f 37/187/48 117/188/48 115/189/48 23/190/48
f 39/93/49 43/191/49 51/192/49 49/124/49
f 45/104/22 46/193/22 48/194/22 47/105/22
f 60/89/50 62/68/50 61/67/50 59/90/50
f 51/192/51 43/191/51 45/104/51 52/103/51
f 68/195/7 90/164/7 91/166/7 70/196/7
f 71/107/52 59/90/52 61/67/52 42/110/52
f 87/172/53 60/197/53 93/198/53 99/173/53
f 86/29/41 76/199/41 78/200/41 88/30/41
f 41/92/54 44/201/54 43/191/54 39/93/54
f 104/202/55 103/134/55 97/117/55 98/116/55
f 11/9/56 9/8/56 8/203/56 10/204/56
f 79/55/57 81/205/57 80/206/57 78/56/57
f 50/207/58 77/54/58 75/81/58 73/131/58
f 89/208/59 80/209/59 82/210/59 90/211/59
f 2/169/60 4/168/60 3/212/60 1/213/60
f 80/206/61 81/205/61 83/57/61 82/101/61
f 84/214/11 85/215/11 53/216/11 47/217/11 48/218/11 69/219/11 70/220/11 91/221/11
f 66/84/62 89/208/62 90/211/62 68/85/62
f 36/222/38 118/223/38 117/224/38 37/225/38
f 109/7/63 110/135/63 106/226/63 7/227/63 8/203/63 9/8/63
f 4/168/64 18/113/64 17/112/64 34/228/64 3/212/64
f 22/229/65 112/230/65 111/231/65 14/232/65
f 67/86/66 46/12/66 44/11/66 65/83/66
f 96/100/67 23/233/67 24/234/67 57/235/67 55/156/67 54/73/67 95/72/67
f 104/236/68 98/237/68 99/161/68 101/160/68
f 77/54/14 50/207/14 49/238/14 79/55/14
f 19/239/69 113/240/69 112/241/69 22/242/69
f 86/29/70 62/28/70 60/243/70 87/244/70
f 13/137/71 11/245/71 10/246/71 12/180/71
f 87/244/72 74/247/72 76/199/72 86/29/72
f 33/136/73 32/248/73 11/245/73 13/137/73
f 101/249/44 100/249/74 119/249/44 120/249/75
f 102/115/76 16/114/76 108/167/76 119/186/76
f 106/226/77 110/135/77 103/134/77 104/202/77
f 119/250/78 108/251/78 105/252/78 120/253/78
f 104/254/79 120/253/79 105/252/79 106/255/79
f 5/20/80 6/27/80 105/256/80 108/257/80
f 6/27/81 7/26/81 106/258/81 105/256/81
f 29/159/82 58/158/82 27/259/82 25/260/82
f 26/261/83 25/262/83 27/263/83 28/264/83
f 14/265/35 15/266/35 20/146/35 22/145/35
f 20/146/84 26/261/84 28/264/84 31/36/84
f 21/267/85 34/228/85 17/112/85
f 23/38/86 38/268/86 32/269/86 37/41/86
f 33/270/87 20/146/87 31/36/87
f 33/270/88 34/271/88 21/147/88 20/146/88
f 31/36/89 37/41/89 32/269/89 33/270/89
l 101 105
l 108 107
